<?xml version="1.0" encoding="iso-8859-1"?>
<!-- Generator: Adobe Illustrator 16.0.0, SVG Export Plug-In . SVG Version: 6.00 Build 0)  -->
<!DOCTYPE svg PUBLIC "-//W3C//DTD SVG 1.1//EN" "http://www.w3.org/Graphics/SVG/1.1/DTD/svg11.dtd">
<svg version="1.1" id="Capa_1" xmlns="http://www.w3.org/2000/svg" xmlns:xlink="http://www.w3.org/1999/xlink" x="0px" y="0px"
	 width="533.333px" height="533.333px" viewBox="0 0 533.333 533.333" style="enable-background:new 0 0 533.333 533.333;"
	 xml:space="preserve">
<g>
	<path d="M266.667,0C121.485,0,3.407,116.022,0.079,260.403C3.163,134.433,98.95,33.333,216.667,33.333
		c119.661,0,216.667,104.467,216.667,233.333c0,27.614,22.386,50,50,50s50-22.386,50-50C533.333,119.391,413.942,0,266.667,0z
		 M266.667,533.333c145.182,0,263.259-116.021,266.587-260.402C530.17,398.901,434.383,500,316.667,500
		C197.005,500,100,395.533,100,266.667c0-27.615-22.386-50-50-50s-50,22.386-50,50C0,413.942,119.391,533.333,266.667,533.333z"/>
</g>
<g>
</g>
<g>
</g>
<g>
</g>
<g>
</g>
<g>
</g>
<g>
</g>
<g>
</g>
<g>
</g>
<g>
</g>
<g>
</g>
<g>
</g>
<g>
</g>
<g>
</g>
<g>
</g>
<g>
</g>
</svg>
