<?xml version="1.0" ?><!DOCTYPE svg  PUBLIC '-//W3C//DTD SVG 1.1//EN'  'http://www.w3.org/Graphics/SVG/1.1/DTD/svg11.dtd'><svg enable-background="new 0 0 512 512" id="Layer_1" version="1.1" viewBox="0 0 512 512" xml:space="preserve" xmlns="http://www.w3.org/2000/svg" xmlns:xlink="http://www.w3.org/1999/xlink"><circle cx="256" cy="256" fill="#BC1142" id="ellipse" r="256"/><path d="M198.3,96c-1.6,0.1-3.3,0.6-5.3,2.2c-4.8-1.9-9.6-2.5-13.8,1.3c-6.5-0.8-8.6,0.9-10.2,2.9  c-1.4,0-10.7-1.5-14.9,4.9c-10.6-1.3-14,6.3-10.2,13.3c-2.2,3.4-4.4,6.7,0.7,13.1c-1.8,3.6-0.7,7.4,3.6,12.1c-1.1,5,1.1,8.6,5,11.3  c-0.7,6.9,6.3,10.9,8.4,12.3c0.8,4,2.5,7.8,10.5,9.9c1.3,6,6.1,7,10.8,8.2c-15.5,9-28.7,20.8-28.6,49.8l-2.3,4  c-17.7,10.8-33.7,45.4-8.7,73.6c1.6,8.8,4.4,15.1,6.8,22.1c3.6,28.2,27.4,41.5,33.6,43c9.2,7,19,13.6,32.2,18.3  c12.5,12.9,25.9,17.7,40.1,17.7c14.1,0,27.6-4.9,40.1-17.7c13.2-4.6,23-11.3,32.2-18.3c6.3-1.6,30-14.8,33.6-43  c2.4-7,5.2-13.3,6.8-22.1c24.9-28.1,9-62.8-8.7-73.6l-2.3-4c0.1-29-13.2-40.8-28.6-49.8c4.7-1.3,9.5-2.3,10.8-8.2  c8-2.1,9.7-5.9,10.5-9.9c2.1-1.4,9.1-5.4,8.4-12.3c3.9-2.8,6.1-6.3,5-11.3c4.2-4.7,5.4-8.6,3.6-12.1c5.1-6.4,2.8-9.7,0.7-13.1  c3.8-7,0.5-14.5-10.2-13.3c-4.2-6.3-13.5-4.9-14.9-4.9c-1.6-2-3.7-3.8-10.2-2.9c-4.2-3.8-8.9-3.1-13.8-1.3c-2-1.6-3.7-2.1-5.3-2.2  c-3.1-0.1-5.7,1.8-8.6,2.7c-7-2.3-8.5,0.8-12,2.1c-7.6-1.6-9.9,1.9-13.5,5.6l-4.3-0.1c-11.4,6.7-17.1,20.5-19.4,20.5  c-2.3,0-7.9-13.7-19.4-20.5l-4.3,0.1c-3.6-3.7-5.9-7.2-13.5-5.6c-3.4-1.3-5-4.4-12-2.1C204,97.8,201.4,95.9,198.3,96L198.3,96z   M198.7,104.1c5.8,2.2,8.8,4.9,12,7.7c1.1-1.4,2.7-2.5,0.7-6c4.1,2.4,7.2,5.2,9.5,8.3c2.6-1.6,1.5-3.8,1.5-5.9  c4.3,3.5,7,7.2,10.4,10.8c0.7-0.5,1.2-2.2,1.8-4.8c10.2,9.9,24.7,35,3.7,44.9c-17.8-14.7-39.2-25.4-62.8-33.4  c30.4,15.7,48,28.3,57.7,39.1c-5,19.9-30.8,20.8-40.3,20.2c1.9-0.9,3.6-2,4.1-3.7c-2.4-1.7-10.8-0.2-16.7-3.5  c2.3-0.5,3.3-0.9,4.4-2.6c-5.5-1.8-11.5-3.3-15-6.2c1.9,0,3.7,0.4,6.1-1.3c-5-2.7-10.3-4.8-14.4-8.9c2.6-0.1,5.3,0,6.1-1  c-4.5-2.8-8.4-6-11.6-9.4c3.6,0.4,5.1,0.1,6-0.5c-3.4-3.5-7.8-6.5-9.8-10.8c2.7,0.9,5.1,1.2,6.9-0.1c-1.2-2.6-6.2-4.2-9.1-10.3  c2.8,0.3,5.8,0.6,6.4,0c-1.3-5.3-3.5-8.3-5.7-11.4c6-0.1,15.1,0,14.7-0.5l-3.7-3.8c5.9-1.6,11.9,0.3,16.2,1.6c2-1.5-0.1-3.5-2.4-5.5  c5,0.7,9.5,1.8,13.6,3.4c2.2-2-1.4-3.9-3.2-5.9c7.7,1.5,11,3.5,14.2,5.6C202.5,108,200.3,106.1,198.7,104.1z M313.3,104.1  c-1.6,2-3.8,3.9-1.5,6.1c3.2-2.1,6.5-4.1,14.2-5.6c-1.7,2-5.4,3.9-3.2,5.9c4.1-1.6,8.6-2.7,13.6-3.4c-2.4,2-4.4,4-2.4,5.5  c4.4-1.4,10.4-3.2,16.2-1.6l-3.7,3.8c-0.4,0.5,8.7,0.4,14.7,0.5c-2.2,3.1-4.4,6.1-5.7,11.4c0.6,0.6,3.6,0.3,6.4,0  c-2.9,6.2-7.9,7.7-9.1,10.3c1.8,1.4,4.2,1,6.9,0.1c-2.1,4.3-6.4,7.3-9.8,10.8c0.9,0.6,2.4,1,6,0.5c-3.2,3.4-7,6.6-11.6,9.4  c0.8,0.9,3.6,0.9,6.1,1c-4.1,4.1-9.4,6.2-14.4,8.9c2.5,1.7,4.2,1.3,6.1,1.3c-3.5,2.9-9.5,4.5-15,6.2c1.1,1.7,2.1,2.1,4.4,2.6  c-5.9,3.3-14.3,1.8-16.7,3.5c0.6,1.7,2.2,2.8,4.1,3.7c-9.5,0.6-35.3-0.4-40.3-20.2c9.7-10.8,27.3-23.4,57.7-39.1  c-23.6,8-44.9,18.7-62.8,33.4c-21-9.9-6.5-34.9,3.7-44.9c0.5,2.6,1.1,4.3,1.8,4.8c3.3-3.6,6.1-7.3,10.4-10.8c0,2-1,4.3,1.5,5.9  c2.3-3.1,5.4-5.9,9.5-8.3c-2,3.5-0.4,4.6,0.7,6C304.5,109,307.5,106.3,313.3,104.1L313.3,104.1z M256,186.3  c18.1,0,33.2,12.3,33.3,19.5c0,9.1-13.3,18.4-33,18.6c-0.1,0-0.2,0-0.2,0c-0.1,0-0.2,0-0.2,0c-19.8-0.2-33.1-9.6-33-18.6  C222.8,198.6,237.9,186.3,256,186.3z M205.2,192.2c0.4,0,0.7,0,1.1,0c2.9,0,6,0.3,9,0.8c10.3,1.7-49.6,54.1-50.5,42.4  C163.9,208.7,181.8,192.6,205.2,192.2z M305.7,192.2c0.4,0,0.7,0,1.1,0c23.3,0.4,41.2,16.5,40.4,43.2c-0.9,11.7-60.9-40.7-50.5-42.4  C299.8,192.5,302.8,192.2,305.7,192.2z M214.7,225.6c3.5,0,7,0.5,10.4,1.6c18.2,6.1,27.4,27.4,20.5,47.5  c-6.8,20.1-27.1,31.5-45.3,25.4c-18.2-6.1-27.4-27.4-20.5-47.5C185.3,236.2,199.7,225.7,214.7,225.6z M297.3,225.6  c15,0.1,29.4,10.7,34.9,27c6.8,20.1-2.4,41.4-20.5,47.5c-18.2,6.1-38.5-5.3-45.3-25.4c-6.8-20.1,2.4-41.4,20.5-47.5  C290.3,226,293.8,225.5,297.3,225.6L297.3,225.6z M161.5,248c14.2,0.2,3.6,67.4-9.2,61.7c-14.6-11.7-19.3-46,7.8-61.4  c0.4-0.1,0.7-0.2,1.1-0.2C161.3,248,161.4,248,161.5,248L161.5,248z M350.5,248c0.1,0,0.2,0,0.4,0c0.4,0,0.7,0.1,1.1,0.2  c27,15.4,22.3,49.7,7.8,61.4C346.8,315.4,336.3,248.2,350.5,248L350.5,248z M256,294.4c9.5,0,18.5,3.5,25,9.3  c6.9,6.3,11,15.2,10.9,24.1c0,8.8-3.9,17.5-10.7,23.7c-6.6,6.1-15.9,9.7-25.2,9.8c-9.4-0.1-18.6-3.7-25.2-9.8  c-6.7-6.2-10.7-14.9-10.7-23.7c-0.1-8.9,4-17.9,10.9-24.1C237.5,297.9,246.5,294.4,256,294.4z M172.4,312c9.4-0.2,20.9,7.2,30.2,18  c10.4,12.5,15.1,34.6,6.5,41.1c-8.2,5-28.2,2.9-42.4-17.5c-9.6-17.1-8.3-34.5-1.6-39.6C167.4,312.7,169.8,312,172.4,312z M338.7,312  c0.3,0,0.6,0,0.9,0c2.6,0.1,5.1,0.7,7.3,2c6.7,5.1,8,22.5-1.6,39.6c-14.2,20.4-34.2,22.4-42.4,17.5c-8.7-6.5-4-28.5,6.5-41.1  C318.3,319.5,329.4,312.3,338.7,312L338.7,312z M256,372c14.5-0.2,36.1,6,35.9,13.8c0.2,5.4-17.5,21-35.6,20.2c-0.1,0-0.2,0-0.3,0  c-0.1,0-0.2,0-0.3,0c-18.1,0.8-35.8-14.8-35.6-20.2C219.9,378,241.5,371.9,256,372z" fill="#FFFFFF" id="logo"/></svg>